<?xml version="1.0" ?><svg style="enable-background:new 0 0 48 48;" version="1.1" viewBox="0 0 48 48" xml:space="preserve" xmlns="http://www.w3.org/2000/svg" xmlns:xlink="http://www.w3.org/1999/xlink"><style type="text/css">
	.st0{display:none;}
	.st1{fill:none;stroke:#134563;stroke-width:0.7;stroke-linecap:round;stroke-linejoin:round;stroke-miterlimit:10;}
	.st2{fill:#134563;}
</style><g class="st0" id="Padding__x26__Artboard"/><g id="Icons">

<path class="st1" d="M30.765,29.38402v0.71c0,0.561-0.459,1.02-1.02,1.02H17.55643c-0.09944,0-0.19736,0.02438-0.28518,0.07101   l-3.44848,1.83095l0.66153-1.88099"/>

<path class="st1" d="M14.495,31.11402h-2.12385c-0.27289,0-0.49615-0.22327-0.49615-0.49615V19.07018   c0-0.27838,0.22777-0.50615,0.50615-0.50615h2.65999"/>
<g>

<path class="st1" d="M33.205,28.95402h2.12794c0.79206,0,0.79206-0.5,0.79206-1.13V15.60018    c0-0.33888-0.27727-0.61615-0.61615-0.61615H15.71115c-0.33889,0-0.61615,0.27727-0.61615,0.61615v2.96385v9.66082    c0,0.45841,0.2878,0.72918,0.88749,0.72918h13.98758l0.81833,0.44258l3.1666,1.67743L33.205,28.95402"/>

<line class="st1" x1="34.38765" x2="34.38765" y1="25.04769" y2="26.27402"/>

<line class="st1" x1="34.38765" x2="34.38765" y1="18.61782" y2="23.61663"/></g></g></svg>