<?xml version="1.0" ?><svg style="enable-background:new 0 0 48 48;" version="1.1" viewBox="0 0 48 48" xml:space="preserve" xmlns="http://www.w3.org/2000/svg" xmlns:xlink="http://www.w3.org/1999/xlink"><g id="Padding__x26__Artboard"/>


<g id="Icons"><g>


<path d="M30.765,29.38284v0.71c0,0.561-0.459,1.02-1.02,1.02H17.55643    c-0.09944,0-0.19736,0.02438-0.28518,0.07101l-3.44848,1.83095l0.66153-1.88099l0.01069-0.02097h-2.12385    c-0.27289,0-0.49615-0.22327-0.49615-0.49615V19.069c0-0.27838,0.22777-0.50615,0.50615-0.50615h2.65999" style="fill:#FFFFFF;"/>

<path d="M30.76378,29.38715v0.71002c0,0.56-0.46002,1.01996-1.02002,1.01996h-12.19    c-0.10004,0-0.19,0.02002-0.28003,0.07001l-3.44995,1.83002l0.65997-1.88001l0.01001-0.02002h-0.42999    c0-0.01996,0-0.03998,0-0.03998s-1.03003-0.13-1-1.69c0.02997-1.57001,0-9.16003,0-9.16003s0.01996-0.75,1.97998-0.75    c0.48999,0,0.75-0.12994,0.85999-0.31995L30.76378,29.38715z" style="fill:#B9D4F8;"/>


<path d="M33.205,28.95284h2.12794c0.79206,0,0.79206-0.5,0.79206-1.13V15.599    c0-0.33888-0.27728-0.61615-0.61615-0.61615H15.71115c-0.33889,0-0.61615,0.27727-0.61615,0.61615v2.96385v9.66082    c0,0.45841,0.2878,0.72918,0.88749,0.72918h13.98758l0.81833,0.44258l3.1666,1.67743L33.205,28.95284" style="fill:#FFFFFF;"/>

<path d="M36.12377,15.59717v12.22998c0,0.63,0,1.13-0.79004,1.13h-2.13l0.75,2.12l-3.16998-1.67999    l-0.81-0.44c0,0-11.66313-0.07751-11.71334-0.07751c-0.84219,0-1.85417-0.875-1.96898-2.26653    c-0.23936-2.90086,0.17648-5.80701,0.01707-8.70577c-0.01772-0.32215-0.03854-0.66212,0.10699-0.95015    c0.2922-0.5782,1.07145-1.00753,1.65599-1.04631c1.95996-0.13,17.4423-0.92377,17.4423-0.92377    C35.84374,14.98712,36.12377,15.25714,36.12377,15.59717z" style="fill:#B9D4F8;"/>


<path d="M36.12377,25.43365v2.49206c0,0.6109,0,1.09573-0.76608,1.09573h-2.0654l0.72725,2.0557    l-3.07384-1.62904l-0.78543-0.42666l-9.31873-0.00005c-0.6082-0.16116-1.39319-0.37002-1.84803-0.83778    c-0.5313-0.54638-0.31791-1.43561-0.31762-2.15483c0-1.34694,0.00567-2.69405-0.00488-4.04095    c-0.0052-0.66322-0.03416-1.32594-0.04443-1.98907c-0.00916-0.5918-0.10068-1.34146,0.06892-1.91252    c0.23994-0.80792,1.12443-1.12152,1.88441-1.15664c2.30782-0.10665,13.14875,0,13.14875,0s1.36727-0.04847,1.88116,2.01693    C36.12377,21.01195,36.12377,25.43365,36.12377,25.43365z" style="fill:#659BDB;"/>


<path d="    M30.765,29.38284v0.71c0,0.561-0.459,1.02-1.02,1.02H17.55643c-0.09944,0-0.19736,0.02438-0.28518,0.07101l-3.44848,1.83095    l0.66153-1.88099" style="fill:none;stroke:#134563;stroke-width:0.7;stroke-linecap:round;stroke-linejoin:round;stroke-miterlimit:10;"/>


<path d="    M14.495,31.11284h-2.12385c-0.27289,0-0.49615-0.22327-0.49615-0.49615V19.069c0-0.27838,0.22777-0.50615,0.50615-0.50615h2.65999    " style="fill:none;stroke:#134563;stroke-width:0.7;stroke-linecap:round;stroke-linejoin:round;stroke-miterlimit:10;"/>

<path d="    M33.205,28.95284h2.12794c0.79206,0,0.79206-0.5,0.79206-1.13V15.599c0-0.33888-0.27728-0.61615-0.61615-0.61615H15.71115    c-0.33889,0-0.61615,0.27727-0.61615,0.61615v2.96385v9.66082c0,0.45841,0.2878,0.72918,0.88749,0.72918h13.98758l0.81833,0.44258    l3.1666,1.67743L33.205,28.95284" style="fill:none;stroke:#134563;stroke-width:0.7;stroke-linecap:round;stroke-linejoin:round;stroke-miterlimit:10;"/>

<line style="fill:none;stroke:#134563;stroke-width:0.7;stroke-linecap:round;stroke-linejoin:round;stroke-miterlimit:10;" x1="34.38765" x2="34.38765" y1="25.04651" y2="26.27284"/>

<line style="fill:none;stroke:#134563;stroke-width:0.7;stroke-linecap:round;stroke-linejoin:round;stroke-miterlimit:10;" x1="34.38765" x2="34.38765" y1="18.61664" y2="23.61545"/>



</g></g></svg>