<?xml version="1.0" ?><svg style="enable-background:new 0 0 48 48;" version="1.1" viewBox="0 0 48 48" xml:space="preserve" xmlns="http://www.w3.org/2000/svg" xmlns:xlink="http://www.w3.org/1999/xlink"><g id="Padding__x26__Artboard"/><g id="Icons"><g><path d="M10.13497,23.26201l1.29999,13.17005h7.83002V23.26201H10.13497z M16.40499,34.34203    c-0.58002,0-1.04004-0.46002-1.04004-1.03003c0-0.57996,0.46002-1.03998,1.04004-1.03998    c0.57001,0,1.02997,0.46002,1.02997,1.03998C17.43496,33.88201,16.975,34.34203,16.40499,34.34203z" style="fill:#B9D4F8;"/><path d="M14.47869,26.47686c-3.20996-0.12-3.71997,2.46997-3.75995,2.67999c0,0.01001,0,0.01001,0,0.01001    l0.71997,7.27002h7.83002v-10.13C17.93871,26.42687,16.16869,26.53686,14.47869,26.47686z M16.40874,34.34685    c-0.58002,0-1.04004-0.46002-1.04004-1.02997c0-0.58002,0.46002-1.04004,1.04004-1.04004    c0.56995,0,1.02997,0.46002,1.02997,1.04004C17.43871,33.88683,16.97869,34.34685,16.40874,34.34685z" style="fill:#659BDB;"/><path d="M19.33785,33.41798c0.34385,0,0.68738-0.00637,1.03132-0.01331    c0.24079-0.00486,0.39902,0.14823,0.59042,0.27801c0.23781,0.16125,0.4763,0.32171,0.72131,0.4719    c0.16461,0.1009,0.35297,0.24185,0.53977,0.29492l6.92604,0.00805l4.75441,0.00126c0.92,0,1.78009-0.56164,1.78009-1.48164    c0-0.93,0.0779-1.87962-0.8421-1.87962h0.1076c0.93,0,1.44474-0.7843,1.44474-1.7143c0-0.92-0.25835-1.6557-1.18835-1.6557    h0.68362c0.92,0,1.40993-0.80351,1.40993-1.73351c0-0.92-0.25147-1.62649-1.17147-1.62649h0.32154    c0.92,0,1.41831-0.84273,1.41831-1.76273c0-0.93-0.49831-1.60727-1.41831-1.60727l-8.70333,0.01419    c0.20236-0.27825,1.23094-4.09943,1.15505-4.833c-0.05301-0.51238-0.20232-1.02329-0.32661-1.52153    c-0.17408-0.69784-0.36239-1.3919-0.54974-2.08626c-0.07708-0.28568-0.28528-0.3673-0.51256-0.52752    c-0.15088-0.10636-0.30939-0.20281-0.47664-0.2813c-0.28087-0.13181-0.58852-0.21334-0.90056-0.19692    c-0.39093,0.02057-0.74333,0.19915-1.03823,0.44869c-0.26472,0.224-0.60664,0.51329-0.606,0.88073    c0.00237,0.69313,0.00176,1.38629,0.002,2.07943c0.00012,0.35174,0.00017,0.70349,0.00019,1.05523    c0.00002,0.31472,0.05031,0.61623-0.11645,0.89495c-0.22356,0.44712-0.52108,0.8709-0.77785,1.30006    c-0.20963,0.35037-0.41811,0.70144-0.62719,1.05215c-0.40336,0.6766-0.80654,1.35332-1.20886,2.03053    c-0.26623,0.44813-0.59877,0.89941-0.81098,1.37689c-0.05059,0.11383-1.68689,1.13181-1.68689,1.13181" style="fill:#FFFFFF;"/><path d="M36.65481,24.53896l-0.43625,0.13513c0.91998,0,1.0947,0.96135,1.0947,1.83372    c0,0.8818-0.48999,1.64033-1.40997,1.64033h-0.69c0.92999,0,1.19,0.70164,1.19,1.57395c0,0.88186-0.51001,1.62141-1.44,1.62141    H34.8533c0.91998,0,0.83997,0.90078,0.83997,1.78258c0,0.87231-0.85999,1.40329-1.77997,1.40329h-4.75l-6.92999-0.00949    c-0.17999-0.0474-0.37-0.18016-0.54004-0.27495c-0.23999-0.14225-0.47998-0.29393-0.71997-0.44561    c-0.19-0.12327-0.35004-0.27501-0.59003-0.26552c-0.33997,0-0.69,0.00949-1.02997,0.00949l-0.08457-8.00644    c0.19995-0.08536,2.63346-1.32227,3.11345-2.0334c0.5-0.73012,3.31-5.76951,3.5-6.41426    c0.17999-0.65425,0.07833-3.75896,0.45833-4.16667c0.32001-0.36031,0.57276-0.75733,1.96277-0.06512    c0.12,0.42663,0.17001,2.47135,0.28,2.89804c0.13,0.47409,0.28003,0.95767,0.33002,1.44125    c0.07995,0.70162-0.94525,3.63143-1.15539,3.88765c-0.17822,0.21804,1.7981,1.08238,2.01754,1.12654    c1.8359,0.36941,2.28334,0.4017,3.80465,0.36941c2.67999-0.05689,3.68318,0.63732,2.86317,2.03118    c0,0,0.06645-0.39938,0.71647-0.60795C36.9297,24.39223,37.17483,24.53896,36.65481,24.53896z" style="fill:#B9D4F8;"/><path d="M19.25872,23.81688c0,0,0,0,0.01001,0v1.08997L19.25872,23.81688z" style="fill:#B9D4F8;"/><polygon points="    19.26206,36.43608 11.4377,36.43608 10.13932,23.25753 19.26206,23.25753   " style="fill:none;stroke:#1B4A9A;stroke-width:0.7;stroke-linecap:round;stroke-linejoin:round;stroke-miterlimit:10;"/><circle cx="16.40041" cy="33.30798" r="1.03556" style="fill:none;stroke:#1B4A9A;stroke-width:0.7;stroke-linecap:round;stroke-linejoin:round;stroke-miterlimit:10;"/><path d="    M19.33785,33.41798c0.09846,0,0.19689-0.00052,0.29531-0.00143c0.48758-0.0045,1.22258,0.19991,1.62886,0.46952    c0.07238,0.04803,0.3319,0.2003,0.56268,0.33445c0.25828,0.15013,0.55093,0.22917,0.84967,0.22952l6.47234,0.00753    l4.85064,0.00129c0.9258,0.00024,1.67905-0.75704,1.68467-1.68282c0.00523-0.86088,0.01074-1.67847-0.84291-1.67847h0.02571    c0.82833,0.00002,1.48865-0.6662,1.52202-1.49386c0.04112-1.02004-0.18053-1.87614-1.18375-1.87614h0.68362    c0.92,0,1.40993-0.80351,1.40993-1.73351c0-0.92-0.25147-1.62649-1.17147-1.62649h0.11346    c0.81742,0,1.50885-0.61547,1.60584-1.42712c0.13122-1.09813-0.37028-1.94288-1.39776-1.94288l-8.70333,0.01419    c0.20236-0.27825,1.23094-4.09943,1.15505-4.833c-0.05301-0.51238-0.20232-1.02329-0.32661-1.52153    c-0.17408-0.69784-0.36239-1.3919-0.54974-2.08626c-0.07708-0.28568-0.28528-0.3673-0.51256-0.52752    c-0.15088-0.10636-0.30939-0.20281-0.47664-0.2813c-0.28087-0.13181-0.58852-0.21334-0.90056-0.19692    c-0.39093,0.02057-0.74333,0.19915-1.03823,0.44869c-0.26472,0.224-0.60664,0.51329-0.606,0.88073    c0.00237,0.69313,0.00176,1.38629,0.002,2.07943c0.00012,0.35174,0.00017,0.70349,0.00019,1.05523    c0.00002,0.31472,0.05031,0.61623-0.11645,0.89495c-0.22356,0.44712-0.52108,0.8709-0.77785,1.30006    c-0.20963,0.35037-0.41811,0.70144-0.62719,1.05215c-0.40336,0.6766-0.80654,1.35332-1.20886,2.03053    c-0.26623,0.44813-0.59877,0.89941-0.81098,1.37689c-0.05059,0.11383-1.68689,1.13181-1.68689,1.13181" style="fill:none;stroke:#1B4A9A;stroke-width:0.7;stroke-linecap:round;stroke-linejoin:round;stroke-miterlimit:10;"/><line style="fill:none;stroke:#1B4A9A;stroke-width:0.7;stroke-linecap:round;stroke-linejoin:round;stroke-miterlimit:10;" x1="12.02555" x2="14.70069" y1="24.78573" y2="24.78573"/><line style="fill:none;stroke:#1B4A9A;stroke-width:0.7;stroke-linecap:round;stroke-linejoin:round;stroke-miterlimit:10;" x1="15.87271" x2="16.6971" y1="24.78573" y2="24.78573"/></g></g></svg>