<?xml version="1.0" ?>
<!DOCTYPE svg  PUBLIC '-//W3C//DTD SVG 1.1//EN'  'http://www.w3.org/Graphics/SVG/1.1/DTD/svg11.dtd'>
<svg enable-background="new 0 0 128 128" id="Layer_1" version="1.1" viewBox="0 0 128 128" width="128" height="128" xml:space="preserve" xmlns="http://www.w3.org/2000/svg" xmlns:xlink="http://www.w3.org/1999/xlink">

<polyline fill="#FFFFFF" points="36,109 36,18 93,18 93,109 "/>

<rect fill="none" height="91" stroke="#3D3D3D" stroke-miterlimit="10" stroke-width="2" width="57" x="36" y="18"/>

<rect fill="#8DCEA8" height="91" width="66" x="44" y="18"/><rect fill="none" height="91" stroke="#3D3D3D" stroke-miterlimit="10" stroke-width="2" width="66" x="44" y="18"/>

<path d="M113.8,109H111c-0.7,0-1,0.1-1-0.7V19.1c0-0.7,0.2-1.1,1-1.1h2.8c2.2,0,4.2,1.6,4.2,3.8v83.8  C118,107.9,116,109,113.8,109z" fill="#53AF80"/>

<path d="M113.8,109H111c-0.7,0-1,0.1-1-0.7V19.1  c0-0.7,0.2-1.1,1-1.1h2.8c2.2,0,4.2,1.6,4.2,3.8v83.8C118,107.9,116,109,113.8,109z" fill="none" stroke="#3D3D3D" stroke-miterlimit="10" stroke-width="2"/>

<line fill="none" stroke="#3D3D3D" stroke-miterlimit="10" stroke-width="2" x1="40" x2="40" y1="18" y2="109"/>

<rect fill="#3D3D3D" height="92" width="4" x="58" y="18"/>

<path d="M98.2,109.4  c0,0-0.5,6.4,3.2,9.6s8.2,4.6,8.2,4.6" fill="none" stroke="#3D3D3D" stroke-linecap="round" stroke-miterlimit="10" stroke-width="2"/>

<rect fill="#FFFFFF" height="20" width="27" x="73" y="33"/><rect fill="none" height="19" stroke="#3D3D3D" stroke-miterlimit="10" stroke-width="2" width="28" x="73" y="33"/>

<line fill="none" stroke="#3D3D3D" stroke-miterlimit="10" stroke-width="2" x1="79" x2="95" y1="38" y2="38"/><line fill="none" stroke="#3D3D3D" stroke-miterlimit="10" stroke-width="2" x1="79" x2="95" y1="42" y2="42"/>

<line fill="none" stroke="#3D3D3D" stroke-miterlimit="10" stroke-width="2" x1="84" x2="90" y1="46" y2="46"/>

<rect fill="#8DCEA8" height="67" width="8" x="15" y="33"/>

<rect fill="#53AF80" height="67" width="4" x="19" y="33"/><path d="M22,33h-5.5c-0.8,0-1.6,0.4-1.6,1.2V100h8V34.2  C23,33.4,22.8,33,22,33z" fill="none" stroke="#3D3D3D" stroke-miterlimit="10" stroke-width="2"/>

<path d="M20.7,107h-2.7c-1.5,0-2.9-1.5-2.9-3v-4h8v4C23,105.5,22.2,107,20.7,107z" fill="#FFFFFF"/>

<path d="M20,107h-2c-1.6,0-3-1.3-3-3v-4h8v4  C23,105.7,21.6,107,20,107z" fill="none" stroke="#3D3D3D" stroke-miterlimit="10" stroke-width="2"/>

<line fill="none" stroke="#3D3D3D" stroke-miterlimit="10" stroke-width="2" x1="15" x2="23" y1="96" y2="96"/>

<line fill="none" stroke="#3D3D3D" stroke-miterlimit="10" stroke-width="2" x1="15" x2="23" y1="93" y2="93"/>


<polyline fill="none" points="  23.1,34.2 19,21.9 14.9,34.2 " stroke="#3D3D3D" stroke-linecap="round" stroke-linejoin="round" stroke-miterlimit="10" stroke-width="2"/>

</svg>