<svg width="32" height="32" xmlns="http://www.w3.org/2000/svg">

 <g>
  <title>background</title>
  <rect fill="none" id="canvas_background" height="402" width="582" y="-1" x="-1"/>
 </g>
 <g>
  <title>Layer 1</title>
  <path id="svg_1" fill="#213358" d="m20,0.005c-6.627,0 -12,5.373 -12,12c0,2.026 0.507,3.933 1.395,5.608l-8.344,8.342l0.007,0.006c-0.652,0.641 -1.058,1.529 -1.058,2.516c0,1.949 1.58,3.529 3.529,3.529c0.985,0 1.874,-0.406 2.515,-1.059l-0.002,-0.002l8.341,-8.34c1.676,0.891 3.586,1.4 5.617,1.4c6.627,0 12,-5.373 12,-12c0,-6.627 -5.373,-12 -12,-12zm-15.205,29.692c-0.322,0.334 -0.768,0.543 -1.266,0.543c-0.975,0 -1.765,-0.789 -1.765,-1.764c0,-0.498 0.21,-0.943 0.543,-1.266l-0.009,-0.008l8.066,-8.066c0.705,0.951 1.545,1.791 2.494,2.498l-8.063,8.063zm15.205,-7.691c-5.522,0 -10,-4.479 -10,-10c0,-5.522 4.478,-10 10,-10c5.521,0 10,4.478 10,10c0,5.521 -4.479,10 -10,10z"/>
  <path id="svg_2" fill="#213358" d="m20,5.005c-3.867,0 -7,3.134 -7,7c0,0.276 0.224,0.5 0.5,0.5s0.5,-0.224 0.5,-0.5c0,-3.313 2.686,-6 6,-6c0.275,0 0.5,-0.224 0.5,-0.5s-0.225,-0.5 -0.5,-0.5z"/>
 </g>
</svg>